<svg width="161" height="25" viewBox="0 0 161 25" fill="none" xmlns="http://www.w3.org/2000/svg">
<path d="M41.5369 24.4909H44.9527V14.2437H46.4064C51.445 14.2437 56.5176 16.5428 56.5176 24.4909H59.9333C59.9333 16.5779 55.5031 12.3167 49.0778 11.9445L60.3726 0.818787H55.9083L44.9516 11.7424V0.818787H41.5359V24.492L41.5369 24.4909Z" fill="#231F20"/>
<path d="M75.3305 7.31007C73.9098 6.48938 72.3333 6.078 70.6023 6.078C68.8712 6.078 67.2937 6.48938 65.874 7.31007C64.4533 8.13179 63.3377 9.2525 62.5273 10.6732C61.717 12.094 61.3118 13.6704 61.3118 15.4015C61.3118 17.1326 61.717 18.676 62.5273 20.0967C63.3377 21.5175 64.4533 22.633 65.874 23.4434C67.2948 24.2538 68.8712 24.659 70.6023 24.659C72.3333 24.659 73.9046 24.2538 75.314 23.4434C76.7234 22.633 77.839 21.5175 78.6607 20.0967C79.4814 18.676 79.8927 17.1109 79.8927 15.4015C79.8927 13.6921 79.4876 12.094 78.6772 10.6732C77.8668 9.2525 76.7512 8.13179 75.3305 7.31007ZM76.046 18.6492C75.5016 19.6369 74.7521 20.4091 73.7984 20.9638C72.8437 21.5185 71.7776 21.7958 70.6012 21.7958C69.4248 21.7958 68.3588 21.5185 67.404 20.9638C66.4493 20.4091 65.6998 19.6379 65.1564 18.6492C64.612 17.6615 64.3409 16.5789 64.3409 15.4025C64.3409 14.2261 64.6131 13.1106 65.1564 12.1229C65.6998 11.1351 66.4493 10.3578 67.404 9.79172C68.3577 9.22569 69.4238 8.94217 70.6012 8.94217C71.7786 8.94217 72.8437 9.22569 73.7984 9.79172C74.7521 10.3578 75.5016 11.13 76.046 12.1064C76.5894 13.0838 76.8616 14.1828 76.8616 15.4025C76.8616 16.6222 76.5894 17.6615 76.046 18.6492Z" fill="#231F20"/>
<path d="M95.4302 7.14407C94.2868 6.4337 93.0043 6.078 91.5845 6.078C90.2741 6.078 89.0812 6.38937 88.0049 7.01004C86.9274 7.63174 86.0511 8.49161 85.3747 9.59068C85.3459 9.6381 85.3201 9.68656 85.2912 9.73399V6.44401H82.6271V24.293H85.6242V15.5355C85.6913 13.3828 86.1954 11.7455 87.1398 10.6238C88.0832 9.50304 89.3648 8.94217 90.9855 8.94217C91.9619 8.94217 92.8341 9.17518 93.6002 9.6412C94.3662 10.1072 94.9652 10.7516 95.3983 11.5723C95.8313 12.394 96.0478 13.326 96.0478 14.3694V24.293H99.012V14.1705C99.012 12.6167 98.7006 11.2351 98.08 10.0247C97.4582 8.81535 96.5757 7.85547 95.4323 7.14407H95.4302Z" fill="#231F20"/>
<path d="M109.7 21.8629C108.812 21.8629 108.107 21.5804 107.585 21.0133C107.063 20.4473 106.802 19.5204 106.802 18.2327V9.00918H111.431V6.44504H106.802V1.7168H103.805V6.44504H100.442V9.00918H103.805V18.4997C103.805 19.8101 104.022 20.9143 104.455 21.8134C104.888 22.7124 105.508 23.3898 106.32 23.8445C107.13 24.2992 108.09 24.527 109.2 24.527C110.221 24.527 111.087 24.3486 111.798 23.994L111.532 21.4298C111.02 21.7185 110.411 21.8629 109.701 21.8629H109.7Z" fill="#231F20"/>
<path d="M125.833 20.9638C124.889 21.5628 123.696 21.8628 122.253 21.8628C121.076 21.8628 120.011 21.5968 119.056 21.0638C118.101 20.5308 117.358 19.7596 116.825 18.7492C116.388 17.9202 116.133 16.981 116.055 15.9355H130.545C130.566 15.4912 130.589 15.0478 130.612 14.6035C130.612 13.0054 130.239 11.562 129.496 10.2742C128.752 8.9875 127.726 7.97092 126.415 7.22756C125.105 6.4842 123.651 6.112 122.053 6.112C120.455 6.112 118.873 6.51719 117.507 7.32757C116.142 8.13795 115.06 9.24835 114.261 10.6578C113.462 12.0682 113.062 13.6384 113.062 15.3695C113.062 17.1006 113.467 18.7657 114.277 20.1648C115.088 21.5638 116.197 22.6619 117.607 23.4609C119.017 24.2599 120.588 24.66 122.319 24.66C124.539 24.66 126.365 24.1331 127.797 23.0784C129.229 22.0247 130.178 20.5534 130.644 18.6657L127.613 18.3326C127.369 19.4874 126.775 20.3637 125.832 20.9638H125.833ZM118.89 9.60818C119.8 9.07514 120.855 8.80914 122.053 8.80914C123.052 8.80914 123.951 9.00916 124.75 9.40816C125.549 9.80819 126.182 10.3515 126.648 11.0403C127.114 11.729 127.359 12.494 127.38 13.3374H116.24C116.365 12.8177 116.541 12.329 116.774 11.8723C117.274 10.8959 117.979 10.1412 118.889 9.60818H118.89Z" fill="#231F20"/>
<path d="M147.861 6.44501H144.364L140.069 12.4723L135.807 6.44501H132.277L138.304 15.1024L131.911 24.2929H135.374L140.069 17.6996L144.731 24.2929H148.26L141.834 15.0695L147.861 6.44501Z" fill="#231F20"/>
<path d="M160.615 21.4298C160.104 21.7185 159.493 21.8629 158.784 21.8629C157.896 21.8629 157.191 21.5804 156.669 21.0133C156.148 20.4473 155.887 19.5204 155.887 18.2327V9.00918H160.516V6.44504H155.887V1.7168H152.89V6.44504H149.527V9.00918H152.89V18.4997C152.89 19.8101 153.106 20.9143 153.539 21.8134C153.972 22.7124 154.593 23.3898 155.404 23.8445C156.215 24.2992 157.175 24.527 158.285 24.527C159.306 24.527 160.172 24.3486 160.882 23.994L160.616 21.4298H160.615Z" fill="#231F20"/>
<path d="M19.1577 19.01C18.9195 16.3541 15.379 12.9507 12.6211 12.7455V12.6435C15.379 12.4053 18.9195 9.0009 19.1577 6.345H19.2598C19.4979 9.0009 23.0384 12.4043 25.7964 12.6435V12.7455C23.0384 12.9497 19.4979 16.3541 19.2598 19.01H19.1577ZM0.977783 24.4909H4.41622V14.0735H7.17419C13.6768 14.0735 17.4555 17.9202 17.4555 24.4909H20.962C20.962 17.9883 24.6386 14.1075 30.9711 14.0055V11.1454C24.6386 11.0433 20.962 7.16259 20.962 0.659973H17.4555C17.4555 7.26466 13.6768 11.0774 7.17419 11.0774H4.41622V0.659973H0.977783V24.4909Z" fill="#231F20"/>
</svg>
